<svg xmlns="http://www.w3.org/2000/svg" width="800" height="300" viewBox="0 0 800 300">
  <defs>
    <!-- Base dark background gradient -->
    <linearGradient id="bgGrad" x1="0%" y1="0%" x2="100%" y2="100%">
      <stop offset="0%" style="stop-color:#040c16;stop-opacity:1" />
      <stop offset="50%" style="stop-color:#071220;stop-opacity:1" />
      <stop offset="100%" style="stop-color:#040e1a;stop-opacity:1" />
    </linearGradient>

    <!-- Teal radial glow top-left -->
    <radialGradient id="glowLeft" cx="20%" cy="30%" r="50%">
      <stop offset="0%" style="stop-color:#2EE59D;stop-opacity:0.12" />
      <stop offset="100%" style="stop-color:#2EE59D;stop-opacity:0" />
    </radialGradient>

    <!-- Teal radial glow bottom-right -->
    <radialGradient id="glowRight" cx="85%" cy="75%" r="45%">
      <stop offset="0%" style="stop-color:#2EE59D;stop-opacity:0.09" />
      <stop offset="100%" style="stop-color:#2EE59D;stop-opacity:0" />
    </radialGradient>

    <!-- Teal line gradient -->
    <linearGradient id="lineGrad" x1="0%" y1="0%" x2="100%" y2="0%">
      <stop offset="0%" style="stop-color:#2EE59D;stop-opacity:0" />
      <stop offset="30%" style="stop-color:#2EE59D;stop-opacity:0.6" />
      <stop offset="70%" style="stop-color:#2EE59D;stop-opacity:0.4" />
      <stop offset="100%" style="stop-color:#2EE59D;stop-opacity:0" />
    </linearGradient>

    <!-- Clip path -->
    <clipPath id="bounds">
      <rect width="800" height="300" />
    </clipPath>
  </defs>

  <!-- Background -->
  <rect width="800" height="300" fill="url(#bgGrad)" />

  <!-- Glow orbs -->
  <rect width="800" height="300" fill="url(#glowLeft)" />
  <rect width="800" height="300" fill="url(#glowRight)" />

  <!-- Dot grid pattern -->
  <g clip-path="url(#bounds)" opacity="0.18">
    <!-- Row 1 -->
    <circle cx="40" cy="30" r="1.2" fill="#2EE59D"/>
    <circle cx="80" cy="30" r="1.2" fill="#2EE59D"/>
    <circle cx="120" cy="30" r="1.2" fill="#2EE59D"/>
    <circle cx="160" cy="30" r="1.2" fill="#2EE59D"/>
    <circle cx="200" cy="30" r="1.2" fill="#2EE59D"/>
    <circle cx="240" cy="30" r="1.2" fill="#2EE59D"/>
    <circle cx="280" cy="30" r="1.2" fill="#2EE59D"/>
    <circle cx="320" cy="30" r="1.2" fill="#2EE59D"/>
    <circle cx="360" cy="30" r="1.2" fill="#2EE59D"/>
    <circle cx="400" cy="30" r="1.2" fill="#2EE59D"/>
    <circle cx="440" cy="30" r="1.2" fill="#2EE59D"/>
    <circle cx="480" cy="30" r="1.2" fill="#2EE59D"/>
    <circle cx="520" cy="30" r="1.2" fill="#2EE59D"/>
    <circle cx="560" cy="30" r="1.2" fill="#2EE59D"/>
    <circle cx="600" cy="30" r="1.2" fill="#2EE59D"/>
    <circle cx="640" cy="30" r="1.2" fill="#2EE59D"/>
    <circle cx="680" cy="30" r="1.2" fill="#2EE59D"/>
    <circle cx="720" cy="30" r="1.2" fill="#2EE59D"/>
    <circle cx="760" cy="30" r="1.2" fill="#2EE59D"/>
    <!-- Row 2 -->
    <circle cx="40" cy="70" r="1.2" fill="#2EE59D"/>
    <circle cx="80" cy="70" r="1.2" fill="#2EE59D"/>
    <circle cx="120" cy="70" r="1.2" fill="#2EE59D"/>
    <circle cx="160" cy="70" r="1.2" fill="#2EE59D"/>
    <circle cx="200" cy="70" r="1.2" fill="#2EE59D"/>
    <circle cx="240" cy="70" r="1.2" fill="#2EE59D"/>
    <circle cx="280" cy="70" r="1.2" fill="#2EE59D"/>
    <circle cx="320" cy="70" r="1.2" fill="#2EE59D"/>
    <circle cx="360" cy="70" r="1.2" fill="#2EE59D"/>
    <circle cx="400" cy="70" r="1.2" fill="#2EE59D"/>
    <circle cx="440" cy="70" r="1.2" fill="#2EE59D"/>
    <circle cx="480" cy="70" r="1.2" fill="#2EE59D"/>
    <circle cx="520" cy="70" r="1.2" fill="#2EE59D"/>
    <circle cx="560" cy="70" r="1.2" fill="#2EE59D"/>
    <circle cx="600" cy="70" r="1.2" fill="#2EE59D"/>
    <circle cx="640" cy="70" r="1.2" fill="#2EE59D"/>
    <circle cx="680" cy="70" r="1.2" fill="#2EE59D"/>
    <circle cx="720" cy="70" r="1.2" fill="#2EE59D"/>
    <circle cx="760" cy="70" r="1.2" fill="#2EE59D"/>
    <!-- Row 3 -->
    <circle cx="40" cy="110" r="1.2" fill="#2EE59D"/>
    <circle cx="80" cy="110" r="1.2" fill="#2EE59D"/>
    <circle cx="120" cy="110" r="1.2" fill="#2EE59D"/>
    <circle cx="160" cy="110" r="1.2" fill="#2EE59D"/>
    <circle cx="200" cy="110" r="1.2" fill="#2EE59D"/>
    <circle cx="240" cy="110" r="1.2" fill="#2EE59D"/>
    <circle cx="280" cy="110" r="1.2" fill="#2EE59D"/>
    <circle cx="320" cy="110" r="1.2" fill="#2EE59D"/>
    <circle cx="360" cy="110" r="1.2" fill="#2EE59D"/>
    <circle cx="400" cy="110" r="1.2" fill="#2EE59D"/>
    <circle cx="440" cy="110" r="1.2" fill="#2EE59D"/>
    <circle cx="480" cy="110" r="1.2" fill="#2EE59D"/>
    <circle cx="520" cy="110" r="1.2" fill="#2EE59D"/>
    <circle cx="560" cy="110" r="1.2" fill="#2EE59D"/>
    <circle cx="600" cy="110" r="1.2" fill="#2EE59D"/>
    <circle cx="640" cy="110" r="1.2" fill="#2EE59D"/>
    <circle cx="680" cy="110" r="1.2" fill="#2EE59D"/>
    <circle cx="720" cy="110" r="1.2" fill="#2EE59D"/>
    <circle cx="760" cy="110" r="1.2" fill="#2EE59D"/>
    <!-- Row 4 -->
    <circle cx="40" cy="150" r="1.2" fill="#2EE59D"/>
    <circle cx="80" cy="150" r="1.2" fill="#2EE59D"/>
    <circle cx="120" cy="150" r="1.2" fill="#2EE59D"/>
    <circle cx="160" cy="150" r="1.2" fill="#2EE59D"/>
    <circle cx="200" cy="150" r="1.2" fill="#2EE59D"/>
    <circle cx="240" cy="150" r="1.2" fill="#2EE59D"/>
    <circle cx="280" cy="150" r="1.2" fill="#2EE59D"/>
    <circle cx="320" cy="150" r="1.2" fill="#2EE59D"/>
    <circle cx="360" cy="150" r="1.2" fill="#2EE59D"/>
    <circle cx="400" cy="150" r="1.2" fill="#2EE59D"/>
    <circle cx="440" cy="150" r="1.2" fill="#2EE59D"/>
    <circle cx="480" cy="150" r="1.2" fill="#2EE59D"/>
    <circle cx="520" cy="150" r="1.2" fill="#2EE59D"/>
    <circle cx="560" cy="150" r="1.2" fill="#2EE59D"/>
    <circle cx="600" cy="150" r="1.2" fill="#2EE59D"/>
    <circle cx="640" cy="150" r="1.2" fill="#2EE59D"/>
    <circle cx="680" cy="150" r="1.2" fill="#2EE59D"/>
    <circle cx="720" cy="150" r="1.2" fill="#2EE59D"/>
    <circle cx="760" cy="150" r="1.2" fill="#2EE59D"/>
    <!-- Row 5 -->
    <circle cx="40" cy="190" r="1.2" fill="#2EE59D"/>
    <circle cx="80" cy="190" r="1.2" fill="#2EE59D"/>
    <circle cx="120" cy="190" r="1.2" fill="#2EE59D"/>
    <circle cx="160" cy="190" r="1.2" fill="#2EE59D"/>
    <circle cx="200" cy="190" r="1.2" fill="#2EE59D"/>
    <circle cx="240" cy="190" r="1.2" fill="#2EE59D"/>
    <circle cx="280" cy="190" r="1.2" fill="#2EE59D"/>
    <circle cx="320" cy="190" r="1.2" fill="#2EE59D"/>
    <circle cx="360" cy="190" r="1.2" fill="#2EE59D"/>
    <circle cx="400" cy="190" r="1.2" fill="#2EE59D"/>
    <circle cx="440" cy="190" r="1.2" fill="#2EE59D"/>
    <circle cx="480" cy="190" r="1.2" fill="#2EE59D"/>
    <circle cx="520" cy="190" r="1.2" fill="#2EE59D"/>
    <circle cx="560" cy="190" r="1.2" fill="#2EE59D"/>
    <circle cx="600" cy="190" r="1.2" fill="#2EE59D"/>
    <circle cx="640" cy="190" r="1.2" fill="#2EE59D"/>
    <circle cx="680" cy="190" r="1.2" fill="#2EE59D"/>
    <circle cx="720" cy="190" r="1.2" fill="#2EE59D"/>
    <circle cx="760" cy="190" r="1.2" fill="#2EE59D"/>
    <!-- Row 6 -->
    <circle cx="40" cy="230" r="1.2" fill="#2EE59D"/>
    <circle cx="80" cy="230" r="1.2" fill="#2EE59D"/>
    <circle cx="120" cy="230" r="1.2" fill="#2EE59D"/>
    <circle cx="160" cy="230" r="1.2" fill="#2EE59D"/>
    <circle cx="200" cy="230" r="1.2" fill="#2EE59D"/>
    <circle cx="240" cy="230" r="1.2" fill="#2EE59D"/>
    <circle cx="280" cy="230" r="1.2" fill="#2EE59D"/>
    <circle cx="320" cy="230" r="1.2" fill="#2EE59D"/>
    <circle cx="360" cy="230" r="1.2" fill="#2EE59D"/>
    <circle cx="400" cy="230" r="1.2" fill="#2EE59D"/>
    <circle cx="440" cy="230" r="1.2" fill="#2EE59D"/>
    <circle cx="480" cy="230" r="1.2" fill="#2EE59D"/>
    <circle cx="520" cy="230" r="1.2" fill="#2EE59D"/>
    <circle cx="560" cy="230" r="1.2" fill="#2EE59D"/>
    <circle cx="600" cy="230" r="1.2" fill="#2EE59D"/>
    <circle cx="640" cy="230" r="1.2" fill="#2EE59D"/>
    <circle cx="680" cy="230" r="1.2" fill="#2EE59D"/>
    <circle cx="720" cy="230" r="1.2" fill="#2EE59D"/>
    <circle cx="760" cy="230" r="1.2" fill="#2EE59D"/>
    <!-- Row 7 -->
    <circle cx="40" cy="270" r="1.2" fill="#2EE59D"/>
    <circle cx="80" cy="270" r="1.2" fill="#2EE59D"/>
    <circle cx="120" cy="270" r="1.2" fill="#2EE59D"/>
    <circle cx="160" cy="270" r="1.2" fill="#2EE59D"/>
    <circle cx="200" cy="270" r="1.2" fill="#2EE59D"/>
    <circle cx="240" cy="270" r="1.2" fill="#2EE59D"/>
    <circle cx="280" cy="270" r="1.2" fill="#2EE59D"/>
    <circle cx="320" cy="270" r="1.2" fill="#2EE59D"/>
    <circle cx="360" cy="270" r="1.2" fill="#2EE59D"/>
    <circle cx="400" cy="270" r="1.2" fill="#2EE59D"/>
    <circle cx="440" cy="270" r="1.2" fill="#2EE59D"/>
    <circle cx="480" cy="270" r="1.2" fill="#2EE59D"/>
    <circle cx="520" cy="270" r="1.2" fill="#2EE59D"/>
    <circle cx="560" cy="270" r="1.2" fill="#2EE59D"/>
    <circle cx="600" cy="270" r="1.2" fill="#2EE59D"/>
    <circle cx="640" cy="270" r="1.2" fill="#2EE59D"/>
    <circle cx="680" cy="270" r="1.2" fill="#2EE59D"/>
    <circle cx="720" cy="270" r="1.2" fill="#2EE59D"/>
    <circle cx="760" cy="270" r="1.2" fill="#2EE59D"/>
  </g>

  <!-- Abstract geometric shapes - large background circles -->
  <circle cx="680" cy="60" r="180" fill="none" stroke="#2EE59D" stroke-width="0.6" opacity="0.08"/>
  <circle cx="680" cy="60" r="130" fill="none" stroke="#2EE59D" stroke-width="0.6" opacity="0.1"/>
  <circle cx="680" cy="60" r="80" fill="none" stroke="#2EE59D" stroke-width="0.8" opacity="0.12"/>

  <circle cx="100" cy="240" r="140" fill="none" stroke="#2EE59D" stroke-width="0.6" opacity="0.07"/>
  <circle cx="100" cy="240" r="90" fill="none" stroke="#2EE59D" stroke-width="0.6" opacity="0.09"/>

  <!-- Horizontal accent lines -->
  <rect x="0" y="1" width="800" height="1" fill="url(#lineGrad)" opacity="0.5"/>
  <rect x="0" y="299" width="800" height="1" fill="url(#lineGrad)" opacity="0.4"/>

  <!-- Diagonal accent lines top-left -->
  <line x1="-20" y1="0" x2="200" y2="300" stroke="#2EE59D" stroke-width="0.5" opacity="0.06"/>
  <line x1="30" y1="0" x2="250" y2="300" stroke="#2EE59D" stroke-width="0.5" opacity="0.05"/>
  <line x1="80" y1="0" x2="300" y2="300" stroke="#2EE59D" stroke-width="0.5" opacity="0.04"/>

  <!-- Code snippet decoration (right side) -->
  <g opacity="0.09" font-family="monospace" font-size="11" fill="#2EE59D">
    <text x="540" y="55">function build()</text>
    <text x="555" y="75">const dev = "NHT";</text>
    <text x="555" y="95">return passion();</text>
    <text x="540" y="115">&#125;</text>
    <text x="540" y="140">class Developer &#123;</text>
    <text x="555" y="160">stack: Laravel</text>
    <text x="555" y="180">exp: "6+ years"</text>
    <text x="540" y="200">&#125;</text>
  </g>

  <!-- Teal glowing horizontal line mid -->
  <rect x="0" y="149" width="800" height="1" fill="url(#lineGrad)" opacity="0.15"/>

  <!-- Small decorative teal squares -->
  <rect x="30" y="28" width="4" height="4" rx="1" fill="#2EE59D" opacity="0.35"/>
  <rect x="42" y="28" width="4" height="4" rx="1" fill="#2EE59D" opacity="0.2"/>
  <rect x="54" y="28" width="4" height="4" rx="1" fill="#2EE59D" opacity="0.12"/>

  <rect x="740" y="264" width="4" height="4" rx="1" fill="#2EE59D" opacity="0.35"/>
  <rect x="752" y="264" width="4" height="4" rx="1" fill="#2EE59D" opacity="0.2"/>
  <rect x="764" y="264" width="4" height="4" rx="1" fill="#2EE59D" opacity="0.12"/>

  <!-- Teal accent bar top -->
  <rect x="30" y="0" width="60" height="2" rx="1" fill="#2EE59D" opacity="0.5"/>
  <rect x="100" y="0" width="20" height="2" rx="1" fill="#2EE59D" opacity="0.25"/>

</svg>
